<svg width="407" height="184" viewBox="0 0 407 184" fill="none" xmlns="http://www.w3.org/2000/svg">
<path d="M111.057 162.285V0H106.964L95.4309 4.83601C92.7335 3.25501 89.106 2.04602 84.6414 1.20902C80.3629 0.372017 76.1773 0 72.1777 0C62.1324 0 53.0171 2.511 44.832 7.44C36.833 12.369 30.4151 19.809 25.6714 29.76C20.8348 39.711 18.5095 52.173 18.5095 67.146H0.0929899V80.352H18.5095V162.285C18.5095 166.284 16.7423 169.26 13.2078 171.12C9.85934 173.073 5.48774 174.189 0 174.468V183.582H58.0398V174.468C52.6451 174.189 48.0875 173.073 44.646 171.12C41.2976 169.167 39.6233 166.284 39.6233 162.285V80.352H76.5493V67.146H39.6233V54.963C39.6233 39.804 42.3207 28.83 47.8085 22.134C53.3892 15.438 60.0861 12.09 67.8992 12.09C73.945 12.09 79.1537 14.043 83.5253 18.042C87.8039 21.855 90.0362 27.528 90.0362 35.061V162.285C90.0362 166.284 88.2689 169.26 84.7344 171.12C81.386 173.073 77.0144 174.189 71.5267 174.468V183.582H129.566V174.468C124.172 174.189 119.614 173.073 116.173 171.12C112.731 169.26 111.057 166.284 111.057 162.285Z" fill="#111111"/>
<path d="M324.777 150.009C315.382 160.518 304.128 164.145 292.873 164.145C268.69 164.145 252.134 142.755 252.134 115.227C252.134 114.297 252.134 113.46 252.134 112.623H328.776C328.776 90.1171 315.847 62.3101 284.874 62.3101C262.644 62.3101 244.414 78.4921 237.066 101.835H224.695C221.161 82.1191 207.86 62.3101 181.816 62.3101C152.796 62.3101 130.566 89.8381 130.566 125.085C130.566 159.588 153.075 183.582 182.839 183.582C203.488 183.582 218.835 171.12 226.927 154.566L221.626 150.009C212.231 160.518 200.977 164.145 189.722 164.145C165.539 164.145 148.983 142.755 148.983 115.227C148.983 84.909 165.725 73.5631 178.003 73.5631C194.094 73.5631 202.186 87.5131 202.465 101.835H162.563V112.623H234.647C233.996 116.622 233.717 120.807 233.717 125.085C233.717 159.588 256.226 183.582 285.99 183.582C306.639 183.582 321.986 171.12 330.078 154.566L324.777 150.009ZM281.154 73.5631C297.245 73.5631 305.337 87.5131 305.616 101.835H253.436C257.436 81.4681 270.922 73.5631 281.154 73.5631Z" fill="#111111"/>
<path d="M389.304 167.958C378.049 167.958 369.678 163.401 369.678 153.078V78.027H405.86V64.821H369.678V37.479H361.028C354.517 52.08 341.868 64.542 331.078 70.773V77.934H348.564V161.076C348.564 173.538 358.889 183.582 376.096 183.582C386.142 183.582 398.419 180.699 406.511 175.398V165.354C401.768 166.935 394.42 167.958 389.304 167.958Z" fill="#111111"/>
</svg>
